<?xml version="1.0" encoding="UTF-8"?>
<svg xmlns="http://www.w3.org/2000/svg" version="1.1" viewBox="0 0 502.06 435.48">
  <!-- Generator: Adobe Illustrator 29.5.1, SVG Export Plug-In . SVG Version: 2.1.0 Build 141)  -->
  <defs>
    <style>
      .st0 {
        fill: #4d4f50;
      }

      .st1 {
        fill: #4f5152;
      }

      .st2 {
        fill: #14a752;
      }

      .st3 {
        fill: #2e3890;
      }

      .st4 {
        fill: #4c4e4f;
      }
    </style>
  </defs>
  <g id="Layer_1">
    <g>
      <path class="st0" d="M68.78,385.8v18.63c0,.33.64,2.3.88,2.62.34.44.89.7,1.42.84,1.28.33,8.48.37,9.71.05,1.01-.26,1.38-.92,1.63-1.87.06-.23.36-1.78.36-1.89v-10.38h4.75c-.23,4.73.61,9.68-.75,14.26h11.38c.73,0,2.13-2.39,2.13-3.13v-9.13h4.75v5.75c4.25-5.94,13.95-11.31,20.26-5.14,3.07,3,3.25,7.62,3.78,11.6,2.82-.2,6.34.4,9.07.02.92-.13,2.14-1.21,2.14-2.11v-19.76s.35-.38.38-.38h4.25c.27,0,.36.61.39.86.48,4.11.26,12.49,0,16.78-.09,1.54-.43,3.12-.76,4.62h11.88c.46,0,1.63-1.4,1.63-1.88v-20.39h4.63s.38.35.38.38v19.51c0,.59-.37,2.52-.57,3.18-.53,1.77-2.11,3.34-3.88,3.88-29.49.74-59.14.11-88.68.32-2.88-.03-5.88-3.39-5.88-6.13v-21.14h4.75ZM124.03,408.07c.51-12.66-10.19-12.43-16.46-3.83-.78,1.07-1.81,2.56-2.04,3.83h18.5Z"/>
      <path class="st0" d="M266.79,385.8v21.64c0,.15-.68,2.14-.82,2.43-.91,1.91-2.62,2.77-4.62,3.13l-28.93.07c-4.6,5.02-11.43,4.91-16.01,0l-29.98-.02c-.78,5.04-5.73,7.23-10.39,7.02v-4.25c2.27.6,5.75-1.46,5.75-3.88v-17.76s.35-.38.38-.38h4.25s.38.35.38.38v13.88h11.38c.73,0,1.88-1.96,1.88-2.63v-11.63h4.75v11.88c0,.59-.68,1.72-.75,2.38h10.75c-.43-6.38,4.01-11.58,10.6-10.97,5.7.52,8.95,5.5,8.4,10.98,2.49-.33,6.24.47,8.57-.05.94-.21,1.93-1.72,1.93-2.57v-11.63h4.75v12.13c0,.36-.63,1.65-.75,2.13h12.13c.58,0,1.63-1.78,1.63-2.38v-19.89h4.75ZM224.2,401.41c-6.07.12-5.84,11.08.46,10.93,6.07-.14,5.59-11.06-.46-10.93Z"/>
      <path class="st0" d="M421.55,385.8l-5.25,8c7.01-.41,13.13,2.83,15.07,9.81.16.57.68,2.65.68,3.07v6.38h-33.38c-.15,0-1.77-.57-2.04-.71-1.84-.89-3.76-3.23-4.08-5.3-1.84,1.8-3.36,3.15-6.13,3.01-9.87-.47-10.85-16.45-2.87-19.64.28-.11,1.75-.63,1.87-.63h12.13v14.88c0,1.01,1.93,3.38,2.88,3.38h26.63c-.22-3.51-1.86-7.14-5.16-8.72-.79-.38-2.93-1.03-3.72-1.03h-10.38l7.54-11.59c.14-.19.73-.92.83-.92h5.38ZM392.55,393.56h-5.38c-.37,0-1.89.9-2.26,1.24-4.45,4.1-.49,14.47,5.37,10.37.88-.62,2.27-3.24,2.27-4.23v-7.38Z"/>
      <path class="st4" d="M445.8,393.81v14.26h10.63c.8,0,2.13-2.58,2.13-3.38v-10.88h4.75v12.38c0,.35-.67,1.31-.5,1.88h5.63c.09,0,1.17-.92,1.34-1.16.24-.35.79-1.88.79-2.21v-10.88h4.75c-.18,4.75.46,9.6-.5,14.26h5.38c.06,0,.98-.53,1.11-.64.61-.55,1.27-2.48,1.27-3.23v-10.38h4.75v11.13c0,3.15-3.2,7.56-6.49,8.02l-35.1.1c-1.23,5.1-5.73,7.23-10.66,7.01v-3.88c1.4-.66,2.69-.26,4.12-1.38.87-.68,1.88-2.57,1.88-3.63v-17.38h4.75Z"/>
      <path class="st0" d="M29.77,389.81v14.88c0,.94,1.92,3.38,2.88,3.38h9.63c-2.89-7.77,2.88-16.3,11.5-14.13,1.76.44,6.1,3.21,5.77,5.23-.04.22-3.41,1.56-3.9,1.87-2.13-4.91-8.53-4-9.12,1.4-.09.87.1,5.63,1.38,5.63h11.88v5h-28.88c-.15,0-1.77-.57-2.04-.71-1.84-.89-3.76-3.23-4.08-5.3-2.71,3.13-6.25,3.95-9.98,1.86-5.59-3.13-5.67-13.93-.64-17.62.58-.42,2.91-1.5,3.5-1.5h12.13ZM24.77,393.56h-5.38c-.09,0-1.35.58-1.55.7-4.59,2.8-2.77,13.37,3.32,11.57,1.78-.53,3.61-3.1,3.61-4.89v-7.38Z"/>
      <path class="st0" d="M325.79,385.8v19.39c0,.15.67,1.68.86,1.89.24.28,1.5.98,1.77.98h10.13c-2.8-5.53.06-13.71,6.65-14.48,14.27-1.67,14.94,18.46,2.98,19.49-6.93.6-14.72-.45-21.74-.03-2.33-.18-5.4-3.33-5.4-5.61v-21.64h4.75ZM346.23,397.87c-5.11.68-4.85,9.69-.26,10.64,7.51,1.54,7.41-11.58.26-10.64Z"/>
      <path class="st0" d="M288.54,398.31h4.5v8.38c0,.41.42,2.16.57,2.68,2.52,8.54,14.93,8.31,18.18.45-6.44,2.53-12.7-.94-12.77-8.13-.12-11.84,16.69-12.57,17.74-.97.97,10.73-3.6,20.49-15.81,19.32-5.64-.54-12.41-6.1-12.41-12.1v-9.63ZM306.97,396.12c-4.74.98-4.54,11.21,1.16,10.93,6.04-.29,5.14-12.24-1.16-10.93Z"/>
      <rect class="st4" x="360.79" y="385.8" width="4.75" height="27.26"/>
      <rect class="st0" x="271.04" y="385.8" width="4.75" height="27.26"/>
      <rect class="st1" x="384.29" y="381.55" width="5" height="5"/>
      <path class="st1" d="M21.52,381.55v5h-4.63s-.38-.35-.38-.38v-4.25s.35-.38.38-.38h4.63Z"/>
      <path class="st1" d="M24.52,386.55v-5h4.63s.38.35.38.38v4.25s-.35.38-.38.38h-4.63Z"/>
      <path class="st1" d="M392.3,386.55v-5h4.63s.38.35.38.38v4.25s-.35.38-.38.38h-4.63Z"/>
      <rect class="st1" x="470.55" y="378.55" width="4.75" height="5"/>
      <rect class="st0" x="309.54" y="385.3" width="4.75" height="4.75"/>
      <rect class="st0" x="82.78" y="385.3" width="4.75" height="4.75"/>
      <rect class="st0" x="236.29" y="385.3" width="4.75" height="4.75"/>
      <rect class="st0" x="244.29" y="385.3" width="4.75" height="4.75"/>
      <rect class="st4" x="301.54" y="385.3" width="4.5" height="4.75"/>
      <rect class="st0" x="344.79" y="385.3" width="4.5" height="4.75"/>
      <rect class="st4" x="466.55" y="385.3" width="4.5" height="4.75"/>
      <rect class="st4" x="474.55" y="385.3" width="4.5" height="4.75"/>
      <rect class="st4" x="182.03" y="385.3" width="4.5" height="4.75"/>
      <rect class="st4" x="192.03" y="417.57" width="4.5" height="4.75"/>
      <rect class="st4" x="200.03" y="417.57" width="4.5" height="4.75"/>
      <path class="st1" d="M358.54,383.05c-.25-1.15-.33-1.97.69-2.75,2.41-1.87,4.07,2.2,6.57,1.39.62-.2,1.18-1.35,1.45-.48.36,1.17-.47,2.53-1.65,2.79-2,.45-3.48-2.55-5.64-1.9-.55.16-.74,1.04-1.43.95Z"/>
    </g>
  </g>
  <g id="Layer_8">
    <path class="st0" d="M412.8,351.79c-.71-.14-2.96.37-3.22-.41-.32-3.53.31-7.49-.04-10.97-.26-2.57-2.07-4.32-4.76-3.52-1.25.37-2.74,2.52-2.74,3.76v11.13h-3v-11.13c0-.09-.4-1.56-.49-1.76-1.51-3.78-6.57-2.15-7.02,1.51-.41,3.38.35,7.51-.03,10.98-.25.78-2.51.27-3.22.41v-17.26c.45.07,2.65-.1,2.75,0,.15.15-.21,2.1.12,2.5,2.5-3.93,8.1-4.14,10.25.25,2.56-4.2,8.92-4.51,10.82.44.11.29.56,1.78.56,1.95v12.13Z"/>
    <path class="st4" d="M15.77,327.77v10.01h11.25v-10.01h3.25v24.01c-.56-.06-3.25.24-3.25-.38v-10.88h-11.25v10.88c0,.61-2.69.31-3.25.38v-24.01h3.25Z"/>
    <path class="st1" d="M421.05,349.78v8.63c0,.61-2.69.31-3.25.38l-.25-24.26h3s0,2.75,0,2.75c5.9-6.93,13.95-2.2,13.51,6.39-.37,7.21-7.44,11.31-13.01,6.12ZM424.48,336.83c-1.67.35-3.25,2.4-3.43,4.07-.37,3.44-.36,7.98,3.94,8.56,7.91,1.07,7.91-14.38-.51-12.63Z"/>
    <path class="st0" d="M200.53,327.77c-.03.5.2,2.75-.38,2.75h-9.38v7.25h8.88c.55,0,.55,2.75,0,2.75h-8.88v8.5h10.25c-.03.5.2,2.75-.38,2.75h-13.13v-24.01h13Z"/>
    <path class="st1" d="M374.99,334.1c11.85-1.35,12.81,16.68,2.15,17.91-11.89,1.38-12.57-16.72-2.15-17.91ZM374.98,336.59c-5.69.97-5.65,14.16,2.17,12.93,5.56-.88,5.77-14.29-2.17-12.93Z"/>
    <path class="st1" d="M156.47,334.1c12.49-1.36,12.61,19.19-.32,17.94-9.54-.92-9.75-16.84.32-17.94ZM156.46,336.59c-5.66.97-5.43,11.68-.45,12.84,8.46,1.97,8.68-14.25.45-12.84Z"/>
    <path class="st1" d="M41.72,334.1c12.51-1.36,12.62,19.19-.32,17.94-9.55-.92-9.73-16.84.32-17.94ZM41.71,336.59c-5.66.97-5.43,11.68-.45,12.84,8.48,1.97,8.68-14.25.45-12.84Z"/>
    <path class="st1" d="M95.97,334.1c12.49-1.36,12.61,19.19-.32,17.94-9.54-.92-9.75-16.84.32-17.94ZM95.96,336.59c-5.66.97-5.43,11.68-.45,12.84,8.46,1.97,8.68-14.25.45-12.84Z"/>
    <path class="st1" d="M365.52,328.3c.27.38-.56,2.14-.48,2.73-7.09-2.73-13.98.22-14.26,8.37-.3,8.72,6.72,11.57,14.25,9.15.05.51.74,2.13.49,2.47-.18.25-3.57.94-4.14.99-6.25.58-12.03-1.91-13.52-8.42-2.32-10.15,4.75-17.67,14.98-15.99.42.07,2.55.54,2.67.71Z"/>
    <path class="st1" d="M238.04,343.78c.42,6.17,5.9,6.6,10.75,5-.11.55.65,1.9.4,2.26-.59.85-5.9,1.1-7.02.99-10.2-1.02-9.19-18.05,1-18.02,4.24.01,6.58,2.97,7.06,6.96.06.49.28,2.81-.31,2.81h-11.88ZM247.04,341.28c.35-6.68-8.59-6.23-8.75,0h8.75Z"/>
    <path class="st1" d="M325.54,343.78c-.15,6.05,5.94,6.64,10.49,5.01.1,1.03,1.08,1.97-.1,2.52-1.67.78-5.33.9-7.16.62-9.34-1.47-8.3-17.91,1.64-17.91,3.99,0,6.64,2.8,7.1,6.67.06.52.2,3.1-.35,3.1h-11.63ZM334.54,341.28c-.16-6.69-8.55-6.26-9,0h9Z"/>
    <path class="st1" d="M284.54,343.78h-12c.15,6.14,5.78,6.5,10.51,5.1.85,2,.73,2.27-1.25,2.78-8.4,2.16-14.16-3.16-11.93-11.69,1.66-6.39,10.54-8.46,13.72-2.37.22.43.95,2.21.95,2.55v3.63ZM281.54,341.28c-.09-6.71-8.34-6.2-9,0h9Z"/>
    <path class="st1" d="M450.3,351.78c-.47-.08-2.9.11-3,0-.07-.07.04-1.61-.25-2-3.53,3.93-11.06,2.75-10.5-3.38.44-4.77,6.36-5.87,10.25-5.63.05-3.34-1.64-4.59-4.88-4.25-1.3.14-2.35,1.02-3.61.99.09-.72-.78-1.57-.27-2.11.87-.93,4.83-1.47,6.13-1.37,8.76.62,4.87,12.13,6.13,17.75ZM446.8,343.03c-3.09-.42-8.22.77-6.81,4.94.74,2.18,4.07,1.95,5.54.68.35-.3,1.27-1.62,1.27-1.99v-3.63Z"/>
    <path class="st1" d="M480.05,347.78l4.37-13.01c.45-.54,2.6-.11,3.38-.24-1.54,4.62-3.19,9.31-5.06,13.82s-3.83,9.75-9.04,11.2c-1.67-3.38-.7-2.45,1.34-3.9,1.04-.74,3.3-3.43,3.26-4.71l-6.12-15.41-.12-1c.78.13,2.92-.3,3.38.25l4.63,13.01Z"/>
    <path class="st1" d="M123.78,351.79h-3.25v-11.38c0-.19-.54-1.53-.7-1.8-1.58-2.79-5.55-2.23-6.94.41-.12.23-.61,1.51-.61,1.64v11.13c-.56-.06-3.25.24-3.25-.38v-16.88c.47.09,2.59-.13,2.74.01.16.15.2,2.48.39,2.49,2.69-4.25,9.29-4.04,11.07.93.11.32.55,1.77.55,1.95v11.88Z"/>
    <path class="st1" d="M303.04,351.79h-3.25v-11.38c0-.19-.54-1.53-.7-1.8-1.53-2.68-5.18-2.31-6.76.09-.14.22-.79,1.6-.79,1.71v11.38h-3.25v-17.26c.45.07,2.65-.1,2.75,0,.09.09.13,2.49.38,2.5,2.61-4.18,9.08-4.05,11,.75.14.35.63,1.89.63,2.12v11.88Z"/>
    <path class="st0" d="M469.55,351.79c-.71-.14-2.96.37-3.22-.41-.55-3.24,1.15-11.68-1.4-13.85-1.59-1.35-4.29-.86-5.63.63-.39.44-1.25,1.98-1.25,2.5v11.13c-.56-.06-3.25.24-3.25-.38v-16.88c2.75-.09,3.05-.46,3.13,2.5,2.06-3.52,7.76-4.11,10.23-.74.42.58,1.39,2.73,1.39,3.36v12.13Z"/>
    <path class="st1" d="M86.78,334.53l-.23,2.15-9.52,12.36h9.75v2.75h-13.63c-.48,0-.53-1.81-.14-2.15l9.77-12.61h-9.25v-2.5h13.25Z"/>
    <path class="st1" d="M210.29,340.78l.51-.16c.62-1,3.04-5.55,3.73-5.97.66-.4,2.64.03,3.5-.12l-5.72,8.16,5.72,9.09c-1.02-.13-2.52.29-3.39-.23s-3.87-6.4-4.24-6.52c-.45-.15-.33.17-.43.32-.61.98-3.36,5.95-3.94,6.31-.64.39-2.43-.02-3.25.12-.09-.38.09-.59.23-.89.76-1.58,5.39-7.04,5.48-8.03l-5.46-8.33c.86.15,2.84-.27,3.5.12s3.27,5.1,3.76,6.13Z"/>
    <path class="st0" d="M169.78,337.03c-.4-.07-2.16.09-2.25,0s-.09-2.42,0-2.5c.12-.12,2.09.14,2.24-.01.24-.23.19-2.58.28-3.09.79-4.38,4.66-6.33,8.75-4.75-.23,3.48-.88,1.77-3.13,2.12-2.53.39-2.69,3.75-2.64,5.74h4.25c-.02.47.17,2.5-.38,2.5h-3.88v14.76c-.56-.06-3.25.24-3.25-.38v-14.38Z"/>
    <path class="st1" d="M320.28,334.79l-.5,2.48c-3.78-1.07-8.28-.82-9.48,3.65-1.74,6.54,3.56,10.17,9.48,7.87.38,1.88,1.12,2.26-.99,2.87-5.24,1.54-11.15-.75-11.94-6.57-1.14-8.38,5.79-12.99,13.43-10.31Z"/>
    <path class="st1" d="M138.27,335.04c.07.09-.67,2.15-.77,2.22-.34.25-4.3-1.93-5.98.14-.56.68-.59,1.7-.19,2.46,1.13,2.11,6.97,1.71,7.45,6.3.64,6.19-6.96,6.98-11.23,4.85-.16-.22.54-2.4.87-2.47,1.9,1.22,7.33,1.92,7.32-1.38s-6.68-2.9-7.61-6.86c-1.35-5.77,6.04-7.62,10.14-5.26Z"/>
    <path class="st1" d="M232.53,337.28c-2.83-.62-6.24-1.23-8.36,1.27-2.6,3.06-1.79,9.26,2.36,10.61,2.31.75,3.75,0,5.99-.36.05.58.52,2.01.23,2.46-.09.14-2.71.71-3.12.75-6.93.69-10.78-3.5-10.09-10.35.58-5.77,6.92-9,12.2-7.21,2.18.74.79,1.03.8,2.83Z"/>
    <rect class="st1" x="262.29" y="326.52" width="3.25" height="25.26"/>
    <rect class="st4" x="254.04" y="326.52" width="3" height="25.01"/>
    <path class="st1" d="M54.77,334.53h2.75c.03.87-.05,1.76,0,2.63.02.28-.16.69.25.62.63-2.38,3.05-4.01,5.5-3.75v2.86c-3.2.17-4.98,1.8-5.26,5.01-.13,1.49.28,9.11-.1,9.65-.3.43-3.14.36-3.14-.14v-16.88Z"/>
    <path class="st1" d="M69.78,334.53v17.26c-.56-.06-3.25.24-3.25-.38v-16.88h3.25Z"/>
    <path class="st1" d="M67.45,327.83c3.57-.81,3.4,4.35.31,3.84-1.92-.31-2.06-3.44-.31-3.84Z"/>
  </g>
  <g id="h">
    <path class="st2" d="M92.53,201.96h62.25v-61.66s.35-.38.38-.38h32.88v159.08h-32.88s-.38-.35-.38-.38v-65.66h-62.25v65.66s-.35.38-.38.38h-32.5s-.38-.35-.38-.38v-65.66h-27.88s-.38-.35-.38-.38v-30.27s.35-.38.38-.38h27.88v-61.66s.35-.38.38-.38h32.5s.38.35.38.38v61.66Z"/>
  </g>
  <g id="c">
    <path class="st3" d="M487.77,171.91l-23.08,17.05c-7.78-11.58-20.38-19.6-34.29-21.48-42.24-5.71-73.57,40.61-52.04,77.83,18.31,31.65,59.6,35.25,84.33,8.68.62-.66,2.11-3.14,2.93-2.97l22.15,16.13c.08.43-2.82,3.77-3.34,4.35-43.59,48.22-128.44,28.52-141.02-36.51-11.44-59.12,41.89-105.32,99.09-92.39,16.17,3.66,33.99,14.13,44.18,27.34.33.43,1.35,1.51,1.09,1.97Z"/>
  </g>
  <g id="E">
    <polygon class="st3" points="337.04 140.17 337.04 170.94 261.04 170.94 261.04 201.71 329.29 201.71 329.29 232.47 261.04 232.47 261.04 267.49 337.04 267.49 337.04 298.26 227.79 298.26 227.79 232.47 200.28 232.47 200.28 201.71 227.79 201.71 227.79 140.17 337.04 140.17"/>
  </g>
  <g id="Layer_4">
    <path class="st4" d="M92.53,88.9C161.59,61.41,230.9,34.33,299.9,6.59l1.26-.26c59.09,33.95,118.29,67.89,177.3,102.03,3.11,1.8,6.5,3.59,9.51,5.5.22.14.56.23.58.55-19.16.05-38.33.53-57.51.14l-131.24-77.07-.61-.1C213.46,70.41,127.37,102.52,41.71,135.73c-2.91,1.13-5.93,2.17-8.69,3.56v14.88H9.27v-32.02c16.77-6.41,33.33-13.37,50-20.01,11.07-4.41,22.21-8.86,33.25-13.26Z"/>
  </g>
  <g id="Layer_3">
    <path class="st2" d="M59.27,102.15v-24.76h33.25v11.51c-11.04,4.39-22.19,8.85-33.25,13.26Z"/>
  </g>
  <g id="Layer_2">
    <path class="st2" d="M111.28,17.36c.08.06-.49.84-.62,1-5.99,7.38-14.83,15.52-21.75,22.26-2.17,2.11-4.98,4.32-7.02,6.48-.25.27-.35.63-.61.89,12-7.04,22.44-16.69,30.99-27.64.55,17.41-3.89,31.91-19.58,40.81-10.01,5.68-22.13,8.66-33.17,11.71-1.87-17.74,5.43-36.63,19.92-47.23,9.41-6.89,20.26-9.07,31.83-8.3ZM80.9,48.13v.25c.16-.08.16-.17,0-.25Z"/>
  </g>
</svg>